<?xml version="1.0" standalone="no"?>
<svg xmlns:xlink="http://www.w3.org/1999/xlink" id="wave" style="transform:rotate(180deg); transition: 0.3s" viewBox="0 0 1440 490" version="1.1" xmlns="http://www.w3.org/2000/svg"><defs><linearGradient id="sw-gradient-0" x1="0" x2="0" y1="1" y2="0"><stop stop-color="rgba(245.514, 134.212, 106.386, 1)" offset="0%"/><stop stop-color="rgba(255, 160, 122, 1)" offset="100%"/></linearGradient></defs><path style="transform:translate(0, 0px); opacity:1" fill="url(#sw-gradient-0)" d="M0,196L34.3,179.7C68.6,163,137,131,206,114.3C274.3,98,343,98,411,147C480,196,549,294,617,343C685.7,392,754,392,823,359.3C891.4,327,960,261,1029,196C1097.1,131,1166,65,1234,40.8C1302.9,16,1371,33,1440,106.2C1508.6,180,1577,310,1646,367.5C1714.3,425,1783,408,1851,334.8C1920,261,1989,131,2057,65.3C2125.7,0,2194,0,2263,65.3C2331.4,131,2400,261,2469,294C2537.1,327,2606,261,2674,196C2742.9,131,2811,65,2880,106.2C2948.6,147,3017,294,3086,359.3C3154.3,425,3223,408,3291,375.7C3360,343,3429,294,3497,245C3565.7,196,3634,147,3703,114.3C3771.4,82,3840,65,3909,73.5C3977.1,82,4046,114,4114,122.5C4182.9,131,4251,114,4320,130.7C4388.6,147,4457,196,4526,236.8C4594.3,278,4663,310,4731,318.5C4800,327,4869,310,4903,302.2L4937.1,294L4937.1,490L4902.9,490C4868.6,490,4800,490,4731,490C4662.9,490,4594,490,4526,490C4457.1,490,4389,490,4320,490C4251.4,490,4183,490,4114,490C4045.7,490,3977,490,3909,490C3840,490,3771,490,3703,490C3634.3,490,3566,490,3497,490C3428.6,490,3360,490,3291,490C3222.9,490,3154,490,3086,490C3017.1,490,2949,490,2880,490C2811.4,490,2743,490,2674,490C2605.7,490,2537,490,2469,490C2400,490,2331,490,2263,490C2194.3,490,2126,490,2057,490C1988.6,490,1920,490,1851,490C1782.9,490,1714,490,1646,490C1577.1,490,1509,490,1440,490C1371.4,490,1303,490,1234,490C1165.7,490,1097,490,1029,490C960,490,891,490,823,490C754.3,490,686,490,617,490C548.6,490,480,490,411,490C342.9,490,274,490,206,490C137.1,490,69,490,34,490L0,490Z"/></svg>